<svg xmlns="http://www.w3.org/2000/svg" xmlns:xlink="http://www.w3.org/1999/xlink" width="940" zoomAndPan="magnify" viewBox="0 0 705 591.000005" height="788" preserveAspectRatio="xMidYMid meet" version="1.0"><defs><clipPath id="bcf3058258"><path d="M 44.660156 2.722656 L 629.421875 2.722656 L 629.421875 587.484375 L 44.660156 587.484375 Z M 44.660156 2.722656 " clip-rule="nonzero"/></clipPath><clipPath id="6d019c6a90"><path d="M 118 344 L 556 344 L 556 587.484375 L 118 587.484375 Z M 118 344 " clip-rule="nonzero"/></clipPath><clipPath id="220ddf5984"><path d="M 471 250 L 501 250 L 501 341 L 471 341 Z M 471 250 " clip-rule="nonzero"/></clipPath><clipPath id="2a5e297e13"><path d="M 492.25 341.140625 L 469.890625 251.03125 L 479.339844 248.6875 L 501.695312 338.796875 Z M 492.25 341.140625 " clip-rule="nonzero"/></clipPath><clipPath id="f9735a99bb"><path d="M 492.25 341.140625 L 469.890625 251.03125 L 479.339844 248.6875 L 501.695312 338.796875 Z M 492.25 341.140625 " clip-rule="nonzero"/></clipPath></defs><g clip-path="url(#bcf3058258)"><path fill="#b3b3b3" d="M 629.449219 295.117188 C 629.449219 369.917969 601.378906 438.140625 555.15625 489.847656 C 501.625 549.785156 423.753906 587.503906 337.058594 587.503906 C 250.367188 587.503906 172.46875 549.785156 118.960938 489.847656 C 72.742188 438.140625 44.671875 369.917969 44.671875 295.117188 C 44.671875 133.640625 175.5625 2.726562 337.058594 2.726562 C 498.53125 2.726562 629.449219 133.640625 629.449219 295.117188 " fill-opacity="1" fill-rule="nonzero"/></g><path fill="#f2f2f2" d="M 337.058594 348.976562 C 390.050781 348.976562 438.320312 289.019531 438.320312 223.1875 C 438.320312 160.984375 426.289062 99.476562 337.058594 99.476562 C 247.820312 99.476562 235.785156 160.984375 235.785156 223.1875 C 235.785156 289.019531 284.058594 348.976562 337.058594 348.976562 " fill-opacity="1" fill-rule="nonzero"/><g clip-path="url(#6d019c6a90)"><path fill="#f2f2f2" d="M 555.15625 489.847656 C 501.625 549.785156 423.753906 587.503906 337.058594 587.503906 C 250.367188 587.503906 172.46875 549.785156 118.960938 489.847656 C 118.035156 453.734375 142.085938 370.066406 264.742188 344.3125 C 285.722656 365.726562 311.546875 377.835938 337.058594 377.835938 C 362.570312 377.835938 388.375 365.726562 409.351562 344.3125 C 532.035156 370.066406 556.058594 453.734375 555.15625 489.847656 " fill-opacity="1" fill-rule="nonzero"/></g><g clip-path="url(#220ddf5984)"><g clip-path="url(#2a5e297e13)"><g clip-path="url(#f9735a99bb)"><path fill="#b3b3b3" d="M 497.222656 339.910156 C 499 339.46875 500.367188 338.261719 500.675781 336.523438 C 500.753906 336.078125 500.820312 335.40625 500.675781 334.832031 C 499.726562 331.003906 498.757812 327.378906 497.816406 323.585938 C 496.007812 316.300781 493.875 308.839844 492.0625 301.523438 L 491 297.292969 C 490.890625 296.960938 490.761719 296.582031 490.628906 296.042969 C 490.371094 294.988281 489.460938 291.109375 489.179688 290.402344 C 488.96875 289.875 488.355469 287.160156 488.132812 286.25 C 487.988281 285.660156 487.894531 285.566406 487.753906 285.015625 L 486.703125 280.769531 C 486.582031 280.273438 486.425781 279.957031 486.289062 279.394531 C 485.335938 275.539062 484.363281 271.914062 483.410156 268.082031 C 482.535156 264.542969 481.417969 260.667969 480.535156 257.050781 C 480.394531 256.472656 480.304688 256.355469 480.171875 255.878906 C 480.039062 255.40625 479.929688 254.898438 479.8125 254.417969 C 479.398438 252.75 478.578125 251.53125 477.042969 250.964844 C 474.546875 250.050781 471.910156 251.53125 471.3125 253.75 C 470.960938 255.050781 471.140625 255.761719 471.476562 257.117188 C 471.601562 257.613281 471.714844 258.152344 471.859375 258.640625 C 471.941406 258.914062 471.96875 258.964844 472.0625 259.230469 C 472.507812 260.496094 473.144531 264.054688 473.800781 265.980469 C 474.109375 266.890625 474.347656 268.113281 474.585938 269.074219 C 474.859375 270.175781 475.136719 271.019531 475.410156 272.109375 L 477.710938 281.101562 C 477.984375 282.203125 478.269531 283.078125 478.53125 284.132812 C 478.804688 285.234375 479.558594 288.496094 479.863281 289.5 C 479.953125 289.796875 480.023438 289.84375 480.113281 290.207031 L 481.261719 294.851562 C 481.410156 295.453125 481.5625 295.765625 481.707031 296.355469 L 484.039062 305.484375 C 484.324219 306.632812 484.539062 307.210938 484.832031 308.382812 L 485.964844 312.953125 C 486.113281 313.558594 486.277344 313.914062 486.410156 314.460938 L 487.753906 319.898438 C 487.847656 320.253906 487.914062 320.273438 488.003906 320.605469 C 488.28125 321.589844 488.515625 322.65625 488.757812 323.65625 C 488.816406 323.882812 488.917969 324.199219 488.953125 324.3125 C 489.492188 326.164062 490.253906 329.75 490.703125 330.996094 C 491.351562 332.800781 491.71875 336.644531 492.921875 338.257812 C 493.609375 339.175781 494.484375 339.648438 495.542969 339.898438 C 496.054688 340.019531 496.636719 340.054688 497.222656 339.910156 " fill-opacity="1" fill-rule="evenodd"/></g></g></g></svg>