<svg xmlns="http://www.w3.org/2000/svg" xmlns:xlink="http://www.w3.org/1999/xlink" width="940" zoomAndPan="magnify" viewBox="0 0 705 591.000005" height="788" preserveAspectRatio="xMidYMid meet" version="1.0"><defs><clipPath id="407fc12b42"><path d="M 161.769531 157.484375 L 527.152344 157.484375 L 527.152344 471.203125 L 161.769531 471.203125 Z M 161.769531 157.484375 " clip-rule="nonzero"/></clipPath></defs><g clip-path="url(#407fc12b42)"><path fill="#000000" d="M 190.609375 157.484375 L 237.125 237.796875 L 260.34375 277.332031 L 283.5625 317.816406 L 330.441406 397.910156 L 353.371094 437.734375 L 358.773438 446.652344 L 344.460938 471.203125 L 339.058594 462.289062 L 292.542969 382.269531 L 246.03125 301.957031 L 161.914062 157.484375 Z M 484 182.332031 L 447.34375 182.332031 L 377.902344 301.886719 L 363.59375 277.332031 L 433.324219 157.484375 L 527.007812 157.484375 L 376.953125 415.449219 L 226.902344 157.484375 L 255.597656 157.484375 L 376.953125 366.339844 Z M 484 182.332031 " fill-opacity="1" fill-rule="nonzero"/></g><path stroke-linecap="butt" transform="matrix(0.388429, 0.640097, -0.640097, 0.388429, 263.069727, 178.031039)" fill="none" stroke-linejoin="miter" d="M 0.000469909 2.00102 L 312.959693 2.00092 " stroke="#000000" stroke-width="4" stroke-opacity="1" stroke-miterlimit="4"/></svg>